<svg xmlns="http://www.w3.org/2000/svg" xmlns:xlink="http://www.w3.org/1999/xlink" viewBox="0,0,256,256" width="192px" height="192px"><g fill="#ffffff" fill-rule="nonzero" stroke="none" stroke-width="1" stroke-linecap="butt" stroke-linejoin="miter" stroke-miterlimit="10" stroke-dasharray="" stroke-dashoffset="0" font-family="none" font-weight="none" font-size="none" text-anchor="none" style="mix-blend-mode: normal"><g transform="scale(10.66667,10.66667)"><path d="M9.66602,2l-0.45117,2.47656l0.01367,-0.00586l0.12891,-0.04102c-0.0503,0.01257 -0.09346,0.03296 -0.14258,0.04688c-0.91782,0.26002 -1.63852,0.74141 -2.25586,1.25586l-0.0332,0.0293h-0.00195l-2.38867,-0.75781l-2.29688,3.98242l1.87305,1.76172l0.00781,-0.04492l0.00977,-0.04492c-0.13805,0.55218 -0.12891,1.0418 -0.12891,1.3418c0,0.3 -0.00097,0.79591 0.11914,1.39648l-0.01172,-0.06445l-1.88281,1.66016l2.32813,4.03516l2.39063,-0.86914l0.01953,0.01953l0.08203,0.05469c0.64267,0.42845 1.38816,0.85581 2.16211,1.1875l0.00391,0.00195l0.44727,2.57813h4.67578l0.45117,-2.47656l-0.01367,0.00586l-0.12891,0.04102c0.0503,-0.01257 0.09346,-0.03296 0.14258,-0.04687c0.91782,-0.26002 1.63852,-0.74141 2.25586,-1.25586l0.0332,-0.0293h0.00195l2.40039,0.76367l2.28906,-4.11914l-1.87305,-1.65234l-0.01172,0.06641l-0.00977,0.04492c0.13804,-0.55222 0.12891,-1.0418 0.12891,-1.3418c0,-0.3 0.0091,-0.78962 -0.12891,-1.3418l0.00586,0.02539l1.89844,-1.67578l-2.32812,-4.03516l-2.39062,0.86914l-0.01953,-0.01953l-0.08203,-0.05469c-0.64271,-0.42845 -1.38816,-0.85581 -2.16211,-1.1875l-0.00391,-0.00195l-0.44726,-2.57812zM11.33398,4h1.32422l0.35156,2.02148l1.01953,0.40625l-0.02344,-0.00781c0.60546,0.25948 1.23416,0.6192 1.7793,0.97852l0.75781,0.75977l2.00977,-0.73242l0.67188,1.16602l-1.50195,1.32617l0.19727,1.18555l0.00977,0.03906c0.06192,0.24782 0.07031,0.55742 0.07031,0.85742c0,0.3 -0.0084,0.6096 -0.07031,0.85742l-0.00586,0.02344l-0.2168,1.08789l1.52734,1.34961l-0.71094,1.28125l-2,-0.63672l-0.77734,0.77734c-0.54312,0.45119 -0.98335,0.73754 -1.58789,0.88867l-0.06641,0.01758l-1.07617,0.42969l-0.34961,1.92383h-1.32422l-0.35156,-2.02148l-1.01953,-0.40625l0.02344,0.00781c-0.60546,-0.25947 -1.23416,-0.6192 -1.7793,-0.97852l-0.75781,-0.75977l-2.00977,0.73242l-0.67187,-1.16602l1.51758,-1.33984l-0.21289,-1.06445c-0.07989,-0.39943 -0.08008,-0.70391 -0.08008,-1.00391c0,-0.3 0.00836,-0.6096 0.07031,-0.85742l0.00586,-0.02344l0.21289,-1.06641l-1.52734,-1.43945l0.70313,-1.2168l2.01172,0.64063l0.77734,-0.77734c0.54312,-0.4512 0.98335,-0.73754 1.58789,-0.88867l0.06641,-0.01758l1.07617,-0.42969zM12,8c-1.25,0 -2.31477,0.50476 -2.99805,1.27344c-0.68327,0.76868 -1.00195,1.75434 -1.00195,2.72656c0,0.97222 0.31868,1.95788 1.00195,2.72656c0.68327,0.76868 1.74805,1.27344 2.99805,1.27344c1.25,0 2.31477,-0.50476 2.99805,-1.27344c0.68327,-0.76868 1.00195,-1.75434 1.00195,-2.72656c0,-0.97222 -0.31868,-1.95788 -1.00195,-2.72656c-0.68327,-0.76868 -1.74805,-1.27344 -2.99805,-1.27344zM12,10c0.75,0 1.18523,0.24524 1.50195,0.60156c0.31673,0.35632 0.49805,0.87066 0.49805,1.39844c0,0.52778 -0.18132,1.04212 -0.49805,1.39844c-0.31673,0.35632 -0.75195,0.60156 -1.50195,0.60156c-0.75,0 -1.18523,-0.24524 -1.50195,-0.60156c-0.31673,-0.35632 -0.49805,-0.87066 -0.49805,-1.39844c0,-0.52778 0.18132,-1.04212 0.49805,-1.39844c0.31673,-0.35632 0.75195,-0.60156 1.50195,-0.60156z"></path></g></g></svg>